<svg width="69" height="68" viewBox="0 0 69 68" fill="none" xmlns="http://www.w3.org/2000/svg">
<g clip-path="url(#clip0_215_31207)">
<path d="M54.3925 19.5718C54.5438 11.7036 48.0513 5.66357 39.1242 5.66357H20.662C20.2316 5.66371 19.8154 5.81745 19.4883 6.09712C19.1612 6.37679 18.9447 6.76402 18.8777 7.18913L11.4789 53.4168C11.4458 53.6263 11.4585 53.8404 11.5161 54.0445C11.5737 54.2486 11.6749 54.4378 11.8126 54.599C11.9503 54.7603 12.1214 54.8898 12.314 54.9786C12.5065 55.0674 12.7161 55.1134 12.9281 55.1135H23.8672L22.1564 65.8192C22.1233 66.0288 22.136 66.2431 22.1937 66.4473C22.2514 66.6515 22.3527 66.8407 22.4906 67.002C22.6285 67.1633 22.7997 67.2927 22.9924 67.3814C23.1852 67.4702 23.3949 67.516 23.607 67.5159H32.5172C32.9484 67.5159 33.3316 67.3603 33.6582 67.0818C33.9848 66.8019 34.0385 66.4159 34.105 65.9903L36.7206 50.6004C36.7871 50.1762 37.0034 49.6248 37.3314 49.3449C37.658 49.0649 37.9436 48.9123 38.3734 48.9108H43.8281C52.57 48.9108 59.9886 42.6983 61.3445 34.0554C62.3031 27.9192 59.6719 22.3387 54.3925 19.5718Z" fill="#001C64"/>
<path d="M26.2326 38.0651L23.5081 55.3425L21.7973 66.1784C21.7642 66.388 21.7769 66.6022 21.8346 66.8064C21.8923 67.0106 21.9935 67.1999 22.1314 67.3611C22.2693 67.5224 22.4405 67.6519 22.6333 67.7406C22.826 67.8293 23.0357 67.8752 23.2479 67.875H32.6784C33.1085 67.8745 33.5243 67.7206 33.8511 67.441C34.1779 67.1614 34.3943 66.7743 34.4613 66.3495L36.9468 50.599C37.0138 50.1743 37.2302 49.7874 37.5571 49.508C37.8839 49.2286 38.2997 49.075 38.7297 49.0749H44.282C53.0239 49.0749 60.441 42.6983 61.7969 34.0554C62.7583 27.9206 59.6705 22.3401 54.3911 19.5718C54.3769 20.225 54.3204 20.8768 54.22 21.5229C52.8641 30.1644 45.4456 36.5424 36.7036 36.5424H28.0155C27.5857 36.5425 27.17 36.6959 26.8432 36.975C26.5164 37.2541 26.2999 37.6406 26.2326 38.0651Z" fill="#0070E0"/>
<path d="M23.5074 55.3426H12.5358C12.3237 55.3428 12.114 55.297 11.9213 55.2082C11.7286 55.1195 11.5575 54.99 11.4197 54.8287C11.2819 54.6674 11.1808 54.4781 11.1233 54.2739C11.0658 54.0697 11.0532 53.8555 11.0866 53.646L18.4839 6.73118C18.551 6.3062 18.7676 5.91913 19.0947 5.6397C19.4218 5.36026 19.838 5.20683 20.2682 5.20703H39.1249C48.0506 5.20703 54.5431 11.7037 54.3918 19.5719C52.1706 18.4069 49.5606 17.7409 46.7004 17.7409H30.9796C30.5497 17.7414 30.1341 17.895 29.8073 18.1744C29.4805 18.4538 29.264 18.8405 29.1968 19.2651L26.2347 38.0652L23.5074 55.3426Z" fill="#003087"/>
</g>
<defs>
<clipPath id="clip0_215_31207">
<rect width="67.8655" height="67.8655" fill="white" transform="translate(0.705078 0.0322266)"/>
</clipPath>
</defs>
</svg>
