<svg width="95" height="40" viewBox="0 0 95 40" fill="none" xmlns="http://www.w3.org/2000/svg">
<path d="M94.526 20.2975C94.526 13.6093 91.2864 8.332 85.0948 8.332C78.8767 8.332 75.1147 13.6095 75.1147 20.2453C75.1147 28.1089 79.5562 32.08 85.9306 32.08C89.0396 32.08 91.3909 31.3746 93.1674 30.3819V25.1567C91.3911 26.0451 89.3532 26.5938 86.7668 26.5938C84.2325 26.5938 81.9858 25.7054 81.6985 22.6227H94.4738C94.4738 22.2828 94.526 20.9244 94.526 20.2975ZM81.62 17.8156C81.62 14.8634 83.4228 13.6354 85.0687 13.6354C86.6622 13.6354 88.3605 14.8634 88.3605 17.8156H81.62ZM65.0306 8.332C62.4701 8.332 60.8242 9.53372 59.91 10.3699L59.5701 8.75009H53.8227V39.2121L60.3539 37.8276L60.3802 30.4341C61.3207 31.1134 62.7052 32.08 65.0043 32.08C69.6808 32.08 73.9392 28.3179 73.9392 20.0363C73.9131 12.4598 69.6024 8.332 65.0304 8.332M63.4628 26.3324C61.9214 26.3324 61.0068 25.7839 60.38 25.1046L60.3538 15.4119C61.0331 14.6544 61.9736 14.132 63.4628 14.132C65.8401 14.132 67.4861 16.7966 67.4861 20.219C67.4861 23.7199 65.8662 26.3324 63.4628 26.3324ZM44.8355 6.79062L51.393 5.37985V0.076416L44.8355 1.4611V6.79062ZM44.8355 8.77617H51.393V31.6358H44.8355V8.77617ZM37.8079 10.7094L37.3898 8.77617H31.7467V31.6358H38.2781V16.1436C39.8193 14.132 42.432 14.4977 43.2419 14.785V8.77617C42.4059 8.4626 39.3492 7.88783 37.8079 10.7094ZM24.745 3.107L18.3705 4.46542L18.3444 25.3919C18.3444 29.2586 21.2444 32.1061 25.1109 32.1061C27.2532 32.1061 28.8206 31.7142 29.6827 31.244V25.9406C28.8469 26.2802 24.7189 27.4819 24.7189 23.6154V14.3408H29.6827V8.77617H24.7189L24.745 3.107ZM7.08429 15.4119C7.08429 14.3932 7.92028 14.0012 9.30515 14.0012C11.2905 14.0012 13.7985 14.6022 15.784 15.6733V9.53373C13.6157 8.67165 11.4735 8.332 9.30515 8.332C4.00154 8.332 0.474609 11.1014 0.474609 15.7257C0.474609 22.9361 10.4022 21.7867 10.4022 24.8957C10.4022 26.0972 9.35732 26.4892 7.8942 26.4892C5.72587 26.4892 2.9565 25.6009 0.761907 24.3992V30.617C3.19163 31.6621 5.64744 32.1061 7.8942 32.1061C13.3282 32.1061 17.0642 29.4153 17.0642 24.7388C17.0381 16.9535 7.08429 18.338 7.08429 15.4119Z" fill="#635BFF"/>
</svg>
