<svg width="18" height="18" viewBox="0 0 18 18" fill="none" xmlns="http://www.w3.org/2000/svg">
<path fill-rule="evenodd" clip-rule="evenodd" d="M9 17.25C13.5563 17.25 17.25 13.5563 17.25 9C17.25 4.44365 13.5563 0.75 9 0.75C4.44365 0.75 0.75 4.44365 0.75 9C0.75 13.5563 4.44365 17.25 9 17.25ZM12.3691 7.84266C12.7425 7.50073 12.7679 6.92089 12.426 6.54755C12.0841 6.17421 11.5042 6.14874 11.1309 6.49067L7.74648 9.59031L6.86912 8.78677C6.49578 8.44484 5.91594 8.4703 5.57401 8.84365C5.23208 9.21699 5.25754 9.79683 5.63088 10.1388L7.12736 11.5093C7.47773 11.8302 8.01522 11.8302 8.3656 11.5093L12.3691 7.84266Z" fill="url(#paint0_linear_1770_754)"/>
<defs>
<linearGradient id="paint0_linear_1770_754" x1="9" y1="24.5043" x2="9" y2="0.75" gradientUnits="userSpaceOnUse">
<stop stop-color="#2B2BCF"/>
<stop offset="1" stop-color="#C96FFF"/>
</linearGradient>
</defs>
</svg>
